<svg width="23" height="30" viewBox="0 0 23 30" fill="none" xmlns="http://www.w3.org/2000/svg">
<path d="M11.25 0C6.5625 0 2.8125 3.75 2.8125 8.4375V12.1875C1.21875 12.1875 0 13.4062 0 15V27.1875C0 28.7812 1.21875 30 2.8125 30H19.6875C21.2812 30 22.5 28.7812 22.5 27.1875V15C22.5 13.4062 21.2812 12.1875 19.6875 12.1875V8.4375C19.6875 3.75 15.9375 0 11.25 0ZM20.625 15V27.1875C20.625 27.75 20.25 28.125 19.6875 28.125H2.8125C2.25 28.125 1.875 27.75 1.875 27.1875V15C1.875 14.4375 2.25 14.0625 2.8125 14.0625H3.75H18.75H19.6875C20.25 14.0625 20.625 14.4375 20.625 15ZM4.6875 12.1875V8.4375C4.6875 4.78125 7.59375 1.875 11.25 1.875C14.9062 1.875 17.8125 4.78125 17.8125 8.4375V12.1875H4.6875Z" fill="#D42570"/>
<path d="M11.25 16.875C9.65625 16.875 8.4375 18.0938 8.4375 19.6875C8.4375 20.9063 9.1875 21.9375 10.3125 22.3125V24.375C10.3125 24.9375 10.6875 25.3125 11.25 25.3125C11.8125 25.3125 12.1875 24.9375 12.1875 24.375V22.3125C13.3125 21.9375 14.0625 20.9063 14.0625 19.6875C14.0625 18.0938 12.8438 16.875 11.25 16.875ZM11.25 20.625C10.6875 20.625 10.3125 20.25 10.3125 19.6875C10.3125 19.125 10.6875 18.75 11.25 18.75C11.8125 18.75 12.1875 19.125 12.1875 19.6875C12.1875 20.25 11.8125 20.625 11.25 20.625Z" fill="#D42570"/>
</svg>
