<svg width="30" height="30" viewBox="0 0 30 30" fill="none" xmlns="http://www.w3.org/2000/svg">
<path d="M6.05641 19.942C9.01538 23.4791 12.5773 26.264 16.6428 28.2346C18.1907 28.9681 20.2607 29.8384 22.567 29.9876C22.7099 29.9938 22.8467 30 22.9897 30C24.5375 30 25.7808 29.4654 26.7941 28.3651C26.8003 28.3589 26.8127 28.3465 26.8189 28.334C27.1795 27.8989 27.5898 27.5073 28.0187 27.0908C28.3109 26.811 28.6092 26.5189 28.8952 26.2205C30.2193 24.8404 30.2193 23.0874 28.8828 21.7509L25.1467 18.0149C24.5127 17.356 23.7543 17.0079 22.9586 17.0079C22.1629 17.0079 21.3983 17.356 20.7456 18.0087L18.5201 20.2341C18.315 20.116 18.1036 20.0104 17.9047 19.9109C17.6561 19.7866 17.4261 19.6685 17.2209 19.5379C15.1944 18.2511 13.3544 16.5727 11.5952 14.4157C10.7062 13.2905 10.1095 12.3456 9.69296 11.3821C10.2773 10.8537 10.8243 10.3005 11.3527 9.75963C11.5392 9.56693 11.7319 9.37422 11.9246 9.18152C12.596 8.51015 12.9565 7.73311 12.9565 6.94364C12.9565 6.15416 12.6022 5.37712 11.9246 4.70576L10.0722 2.85329C9.85458 2.63572 9.64944 2.42437 9.43809 2.2068C9.02781 1.78409 8.59888 1.34894 8.17617 0.957315C7.53589 0.329465 6.78372 0 5.98803 0C5.19855 0 4.44016 0.329465 3.77501 0.963531L1.45011 3.28844C0.604687 4.13386 0.126029 5.15955 0.026568 6.34687C-0.0915422 7.83257 0.181976 9.41152 0.890638 11.3199C1.9785 14.2727 3.61961 17.0141 6.05641 19.942ZM1.54335 6.47741C1.61795 5.65064 1.93498 4.96063 2.53175 4.36386L4.84422 2.05139C5.20477 1.70327 5.60261 1.523 5.98803 1.523C6.36722 1.523 6.75264 1.70327 7.10697 2.06382C7.52346 2.44923 7.91509 2.85329 8.3378 3.28222C8.54915 3.49979 8.76673 3.71736 8.9843 3.94115L10.8368 5.79362C11.2222 6.17903 11.4211 6.57066 11.4211 6.95607C11.4211 7.34148 11.2222 7.73311 10.8368 8.11853C10.6441 8.31123 10.4514 8.51015 10.2586 8.70286C9.68053 9.28719 9.13971 9.84045 8.54294 10.3688C8.53051 10.3813 8.52429 10.3875 8.51186 10.3999C7.9959 10.9159 8.07671 11.407 8.20104 11.7799C8.20726 11.7986 8.21347 11.811 8.21969 11.8297C8.69835 12.9797 9.36349 14.0738 10.4016 15.3792C12.2665 17.6792 14.2309 19.4633 16.3942 20.8371C16.6615 21.0112 16.9474 21.1479 17.2147 21.2847C17.4634 21.409 17.6934 21.5271 17.8985 21.6577C17.9234 21.6701 17.942 21.6826 17.9669 21.695C18.172 21.8007 18.371 21.8504 18.5699 21.8504C19.0672 21.8504 19.3904 21.5334 19.4961 21.4277L21.821 19.1028C22.1816 18.7422 22.5732 18.5495 22.9586 18.5495C23.431 18.5495 23.8165 18.8417 24.0589 19.1028L27.8073 22.845C28.5533 23.591 28.5471 24.3991 27.7887 25.1886C27.5276 25.4683 27.2541 25.7356 26.9619 26.0153C26.5268 26.438 26.073 26.8732 25.6627 27.3643C24.9478 28.1351 24.0962 28.4956 22.9959 28.4956C22.8902 28.4956 22.7783 28.4894 22.6727 28.4832C20.6337 28.3527 18.7377 27.557 17.3142 26.8794C13.4476 25.0083 10.0535 22.3539 7.23751 18.9847C4.91882 16.1935 3.35852 13.5951 2.32661 10.8102C1.68633 9.1007 1.44389 7.7269 1.54335 6.47741Z" fill="#D42570"/>
</svg>
